Coordinates
version=1
nRows=13
nColumns=38
inDegrees=no

Units are S.I. units (second, meters, Newtons, ...)
If the header above contains a line with 'inDegrees', this indicates whether rotational values are in degrees (yes) or radians (no).

endheader
time	pelvis_tilt	pelvis_list	pelvis_rotation	pelvis_tx	pelvis_ty	pelvis_tz	hip_flexion_r	hip_adduction_r	hip_rotation_r	knee_angle_r	ankle_angle_r	subtalar_angle_r	mtp_angle_r	hip_flexion_l	hip_adduction_l	hip_rotation_l	knee_angle_l	ankle_angle_l	subtalar_angle_l	mtp_angle_l	lumbar_extension	lumbar_bending	lumbar_rotation	arm_flex_r	arm_add_r	arm_rot_r	elbow_flex_r	pro_sup_r	wrist_flex_r	wrist_dev_r	arm_flex_l	arm_add_l	arm_rot_l	elbow_flex_l	pro_sup_l	wrist_flex_l	wrist_dev_l
0.63	2.95484	1.40586	-1.24255	0.493891	0.35476	0.929787	0.41983	-0.112172	-0.236135	0.63275	-0.144364	0	0	-0.409558	-0.0567822	-0.276592	0.145656	-0.0962137	0	0	-0.269108	0.127793	-0.172834	-0.234829	-0.286691	-0.285822	0.770114	0.441048	0	0	0.152708	-0.349669	0.316534	0.951095	1.43768	0	0
0.64	2.96116	1.41251	-1.24578	0.494051	0.365236	0.927698	0.412937	-0.115701	-0.245679	0.585571	-0.1348	0	0	-0.410666	-0.0577088	-0.277148	0.154434	-0.0895962	0	0	-0.26279	0.12622	-0.173601	-0.23597	-0.289928	-0.280266	0.771495	0.438517	0	0	0.157892	-0.346656	0.316246	0.956688	1.44784	0	0
0.65	2.96726	1.41548	-1.24684	0.494041	0.375846	0.925997	0.400972	-0.11894	-0.258166	0.544068	-0.125199	0	0	-0.414468	-0.0610894	-0.278591	0.165148	-0.0840318	0	0	-0.259626	0.126538	-0.175975	-0.236055	-0.29216	-0.277627	0.772411	0.432316	0	0	0.162391	-0.342926	0.314724	0.961154	1.4575	0	0
0.66	2.97205	1.41608	-1.24551	0.494036	0.386643	0.924585	0.387446	-0.122162	-0.273195	0.515197	-0.115807	0	0	-0.420107	-0.0664362	-0.280333	0.176991	-0.0803259	0	0	-0.258486	0.128058	-0.179017	-0.236361	-0.293694	-0.276438	0.773301	0.427081	0	0	0.166143	-0.339052	0.312997	0.964759	1.4647	0	0
0.67	2.97407	1.41457	-1.24117	0.494082	0.397565	0.923458	0.373762	-0.124859	-0.287965	0.500395	-0.109374	0	0	-0.427307	-0.0735051	-0.28265	0.189881	-0.0774843	0	0	-0.259431	0.130749	-0.181835	-0.237667	-0.295566	-0.274521	0.77507	0.42335	0	0	0.169164	-0.334768	0.310577	0.967547	1.47121	0	0
0.68	2.97151	1.41273	-1.23313	0.494306	0.408595	0.922486	0.363154	-0.126559	-0.297962	0.501001	-0.108907	0	0	-0.434462	-0.0813593	-0.284386	0.202924	-0.0765108	0	0	-0.260675	0.133965	-0.183396	-0.240092	-0.297875	-0.271236	0.777186	0.422389	0	0	0.171445	-0.330326	0.308204	0.96934	1.47581	0	0
0.69	2.9629	1.4096	-1.2202	0.494739	0.419783	0.921745	0.354198	-0.125999	-0.302928	0.514876	-0.115141	0	0	-0.442302	-0.0908494	-0.287329	0.217383	-0.0764834	0	0	-0.262909	0.138439	-0.183989	-0.242712	-0.300314	-0.267572	0.779747	0.420334	0	0	0.172019	-0.325514	0.303943	0.970609	1.48031	0	0
0.7	2.94793	1.40705	-1.20265	0.495488	0.431249	0.921148	0.348148	-0.122671	-0.302116	0.537559	-0.125765	0	0	-0.449099	-0.100927	-0.290673	0.23254	-0.0785108	0	0	-0.26383	0.143216	-0.183627	-0.244897	-0.301695	-0.265987	0.78135	0.416312	0	0	0.170321	-0.320825	0.298539	0.970991	1.48356	0	0
0.71	2.92611	1.40501	-1.17968	0.496527	0.443047	0.92071	0.343589	-0.115975	-0.298086	0.56275	-0.136107	0	0	-0.454766	-0.111633	-0.294672	0.248524	-0.0827387	0	0	-0.263318	0.1484	-0.18256	-0.247008	-0.302478	-0.265327	0.781865	0.411968	0	0	0.166449	-0.316434	0.292558	0.970454	1.4858	0	0
0.72	2.89697	1.40315	-1.15065	0.497838	0.455131	0.920499	0.338918	-0.105277	-0.292789	0.582958	-0.142794	0	0	-0.459367	-0.123065	-0.299176	0.265568	-0.0893701	0	0	-0.261643	0.154217	-0.180859	-0.248717	-0.302877	-0.264529	0.780322	0.408612	0	0	0.160612	-0.312034	0.285784	0.968696	1.48687	0	0
0.73	2.8607	1.40139	-1.11593	0.499385	0.467379	0.920561	0.334887	-0.0915768	-0.287568	0.596483	-0.146814	0	0	-0.462434	-0.134951	-0.304231	0.284554	-0.0985111	0	0	-0.259082	0.160751	-0.178838	-0.249009	-0.30255	-0.264364	0.776852	0.405194	0	0	0.152874	-0.307584	0.277891	0.965568	1.48704	0	0
0.74	2.81891	1.40028	-1.0773	0.501126	0.479679	0.920883	0.333422	-0.0775917	-0.281726	0.605935	-0.155742	0	0	-0.462746	-0.146678	-0.309363	0.306889	-0.109962	0	0	-0.255535	0.167488	-0.175881	-0.248697	-0.303142	-0.261345	0.771125	0.406211	0	0	0.144198	-0.302769	0.269518	0.960412	1.48717	0	0
0.75	2.77234	1.39977	-1.03515	0.502995	0.492027	0.921474	0.333248	-0.0640183	-0.274885	0.611522	-0.174255	0	0	-0.459915	-0.158006	-0.314619	0.332479	-0.123748	0	0	-0.250746	0.174488	-0.173147	-0.246702	-0.302719	-0.25986	0.763813	0.406029	0	0	0.134067	-0.297673	0.260065	0.953207	1.48729	0	0
